<svg xmlns="http://www.w3.org/2000/svg" xmlns:xlink="http://www.w3.org/1999/xlink" version="1.1" x="0px" y="0px" viewBox="0 0 100 100" enable-background="new 0 0 100 100" xml:space="preserve"><g><rect x="31.219" y="35.556" width="38.232" height="3.823"></rect><rect x="31.219" y="50.849" width="38.232" height="3.823"></rect><rect x="31.219" y="43.203" width="38.232" height="3.823"></rect><rect x="31.219" y="58.495" width="38.232" height="3.823"></rect><path d="M69.451,20.646c0-2.113-1.712-3.824-3.822-3.824h-7.647v-3.058c0-2.111-1.711-3.823-3.823-3.823h-7.646   c-2.113,0-3.824,1.712-3.824,3.823v3.058h-7.646c-2.112,0-3.824,1.711-3.824,3.824v6.626h38.232V20.646z"></path><polygon points="23.573,24.978 29.308,24.978 29.308,21.155 19.75,21.155 19.75,89.973 55.942,89.973 55.942,86.149 23.573,86.149     "></polygon><polygon points="77.099,65.377 80.922,65.377 80.922,21.155 71.363,21.155 71.363,24.978 77.099,24.978  "></polygon><polygon points="77.522,78.462 77.522,69.965 69.026,69.965 69.026,78.462 60.531,78.462 60.531,86.958 69.026,86.958    69.026,95.453 77.522,95.453 77.522,86.958 86.02,86.958 86.02,78.462  "></polygon><rect x="31.219" y="66.141" width="33.219" height="3.824"></rect><rect x="31.219" y="73.789" width="24.723" height="3.822"></rect></g></svg>